<?xml version="1.0" standalone="no"?>
<!DOCTYPE svg PUBLIC "-//W3C//DTD SVG 20010904//EN"
 "http://www.w3.org/TR/2001/REC-SVG-20010904/DTD/svg10.dtd">
<svg version="1.0" xmlns="http://www.w3.org/2000/svg"
 width="512.000000pt" height="512.000000pt" viewBox="0 0 512.000000 512.000000"
 preserveAspectRatio="xMidYMid meet">
<metadata>
Created by potrace 1.14, written by Peter Selinger 2001-2017
</metadata>
<g transform="translate(0.000000,512.000000) scale(0.100000,-0.100000)"
fill="#000000" stroke="none">
<path d="M3540 5113 c-53 -21 -57 -46 -57 -336 0 -147 -2 -270 -5 -272 -2 -3
-12 32 -21 78 -56 276 -61 289 -122 305 -17 4 -95 7 -174 6 l-145 -1 -28 -32
c-30 -34 -34 -59 -17 -131 14 -59 33 -150 80 -380 5 -25 12 -53 15 -62 3 -10
1 -18 -4 -18 -6 0 -17 31 -26 70 -20 88 -54 157 -108 213 -80 84 -185 134
-288 139 -55 2 -150 -10 -169 -22 -11 -6 -30 5 -70 42 -198 181 -514 140 -657
-84 l-24 -38 -47 31 c-62 39 -161 69 -227 69 l-52 0 2 53 c1 28 4 105 5 170 3
105 1 119 -16 137 -31 30 -71 32 -102 6 -26 -23 -27 -28 -31 -142 -2 -66 -5
-120 -6 -122 -2 -1 -16 33 -31 75 -16 43 -35 88 -42 100 -17 26 -58 33 -95 16
-45 -22 -47 -67 -6 -162 10 -24 17 -46 14 -48 -2 -2 -21 18 -42 46 -60 77
-109 94 -156 53 -36 -31 -23 -77 42 -153 33 -38 60 -71 60 -73 0 -3 -47 20
-104 50 -58 30 -116 54 -130 54 -28 0 -66 -42 -66 -72 0 -46 4 -49 235 -173
39 -21 72 -39 73 -40 2 -2 -8 -23 -21 -47 -55 -93 -69 -254 -32 -363 19 -55
72 -147 105 -183 12 -13 76 -86 141 -163 91 -107 119 -147 119 -168 0 -16 3
-43 6 -60 6 -27 4 -31 -14 -31 -30 0 -66 -18 -81 -41 -25 -42 -13 -183 24
-281 14 -36 14 -37 -16 -58 -54 -39 -54 -42 -53 -551 0 -526 7 -480 -76 -494
-25 -4 -80 -20 -122 -36 -43 -16 -114 -42 -158 -59 -120 -45 -240 -56 -365
-34 -125 22 -152 19 -192 -21 -34 -34 -35 -38 -30 -88 4 -29 10 -68 14 -87 3
-19 6 -84 6 -145 -1 -118 -18 -193 -80 -340 -52 -123 -68 -206 -68 -350 1
-103 6 -148 24 -215 90 -335 366 -585 706 -639 79 -12 245 -8 317 9 50 11 61
11 90 -3 30 -15 174 -16 1578 -14 850 2 1558 6 1574 11 286 73 500 258 592
512 31 84 30 100 -7 135 -17 16 -28 33 -24 39 3 5 6 47 6 91 0 78 1 83 31 110
28 27 30 33 23 75 -22 148 -140 337 -287 457 -46 37 -211 127 -235 127 -17 0
-17 -3 14 87 22 66 26 95 25 183 0 58 -2 112 -5 120 -2 8 -8 28 -12 45 -13 47
-52 75 -94 69 -37 -6 -51 -22 -86 -99 -33 -73 -107 -175 -127 -175 -6 0 -9 3
-6 6 4 3 -2 37 -13 75 -16 59 -19 103 -19 323 l0 253 -26 26 c-15 15 -30 24
-35 21 -11 -7 -11 -8 -13 105 l-2 93 28 10 c16 6 33 18 38 28 6 10 10 75 10
145 0 135 -10 174 -51 196 -25 13 -28 -11 41 314 28 132 53 249 56 260 2 11
36 171 75 355 39 184 72 344 74 355 3 11 11 52 19 90 9 39 18 81 20 95 3 14
14 70 26 125 29 134 30 146 14 177 -24 46 -47 51 -214 52 -139 0 -159 -2 -183
-19 -27 -20 -44 -58 -51 -111 -3 -16 -12 -62 -21 -103 -22 -94 -23 -102 -24
-128 -1 -13 -5 -23 -9 -23 -5 0 -8 119 -8 264 0 292 -5 317 -56 335 -32 11
-311 14 -338 4z"/>
</g>
</svg>
